<?xml version="1.0" encoding="utf-8"?>
<svg version="1.0" width="512.000000pt" height="512.000000pt" viewBox="0 0 512.000000 512.000000" preserveAspectRatio="xMidYMid meet" xmlns="http://www.w3.org/2000/svg">
  <g transform="matrix(0.127852, 0, 0, -0.12779, -71.455956, 581.511658)" fill="#000000" stroke="none" style="">
    <path d="M2150 4529 c-673 -59 -1259 -524 -1474 -1169 -69 -207 -81 -288 -80 -545 0 -201 3 -243 22 -335 51 -235 153 -471 280 -650 138 -194 362 -397 566 -513 178 -102 420 -181 629 -207 136 -17 422 -7 547 19 205 42 416 126 579 231 l83 53 411 -411 c227 -227 417 -412 422 -412 6 0 98 88 205 195 l195 195 -413 413 c-226 226 -412 415 -412 419 0 3 23 44 52 90 242 390 320 845 222 1287 -35 156 -74 263 -150 411 -172 333 -428 588 -760 754 -197 98 -404 156 -629 175 -133 12 -158 12 -295 0z m403 -484 c497 -104 874 -482 983 -985 27 -124 25 -382 -3 -505 -157 -674 -799 -1100 -1463 -969 -512 101 -910 508 -1001 1024 -21 118 -16 335 10 460 110 520 535 916 1063 990 90 13 320 4 411 -15z"/>
    <path d="M1580 3360 l0 -140 114 0 114 0 46 -51 46 -51 0 -284 0 -284 473 2 472 3 120 355 121 355 -472 3 -472 2 -103 115 -102 115 -179 0 -178 0 0 -140z"/>
    <path d="M1973 2254 c-95 -47 -97 -200 -4 -249 97 -49 220 32 208 137 -12 99 -116 155 -204 112z"/>
    <path d="M2540 2262 c-58 -26 -90 -73 -90 -132 0 -83 57 -140 138 -140 109 0 178 132 115 219 -36 48 -116 74 -163 53z"/>
  </g>
</svg>